<svg xmlns="http://www.w3.org/2000/svg" xmlns:xlink="http://www.w3.org/1999/xlink" width="2019" zoomAndPan="magnify" viewBox="0 0 1514.25 1394.999941" height="1860" preserveAspectRatio="xMidYMid meet" version="1.0"><defs><clipPath id="69f40823b9"><path d="M 441.097656 478 L 1168 478 L 1168 1359.058594 L 441.097656 1359.058594 Z M 441.097656 478 " clip-rule="nonzero"/></clipPath><clipPath id="546d9f04db"><path d="M 883.421875 460.433594 L 1513.035156 460.433594 L 1513.035156 1354 L 883.421875 1354 Z M 883.421875 460.433594 " clip-rule="nonzero"/></clipPath><clipPath id="cdabfbe5e2"><path d="M 887.046875 870.125 L 1513.035156 870.125 L 1513.035156 1354 L 887.046875 1354 Z M 887.046875 870.125 " clip-rule="nonzero"/></clipPath></defs><path fill="#ba5e4c" d="M 701.96875 120.894531 C 701.96875 120.894531 638.230469 115.058594 640.664062 180.257812 C 643.097656 245.453125 686.882812 272.699219 686.882812 272.699219 C 686.882812 272.699219 738.945312 144.441406 734.082031 133.886719 C 729.210938 123.324219 701.96875 120.894531 701.96875 120.894531 " fill-opacity="1" fill-rule="nonzero"/><g clip-path="url(#69f40823b9)"><path fill="#6472a9" d="M 699.050781 478.019531 L 451.886719 812.269531 L 458.695312 939.253906 L 441.320312 1303.5625 C 441.320312 1303.5625 687.496094 1418.765625 1167.152344 1317.210938 L 1138.203125 966.863281 L 1133.535156 699.878906 L 883.46875 478.019531 L 699.050781 478.019531 " fill-opacity="1" fill-rule="nonzero"/></g><path fill="#f0a48d" d="M 590.0625 893.523438 C 590.0625 893.523438 650.429688 867.441406 674.878906 835.699219 C 699.324219 803.953125 716.441406 672.511719 731.039062 655.359375 C 745.632812 638.210938 761.328125 636.75 772.273438 641.496094 C 772.273438 641.496094 772.273438 900.578125 772.273438 929.773438 C 772.273438 958.960938 744.296875 1006.28125 657.207031 1055.054688 C 657.207031 1055.054688 606.605469 986.449219 590.0625 893.523438 " fill-opacity="1" fill-rule="nonzero"/><path fill="#6472a9" d="M 699.050781 478.019531 C 699.050781 478.019531 571.574219 443.960938 455.777344 472.179688 C 339.980469 500.398438 274.78125 666.796875 186.230469 843.898438 C 97.679688 1020.992188 0.371094 1252.585938 138.550781 1323.628906 C 276.726562 1394.664062 413.933594 1324.597656 471.34375 1284.699219 C 528.757812 1244.808594 620.226562 1173.777344 606.605469 1122.199219 C 606.605469 1122.199219 656.234375 1094.957031 657.207031 1055.054688 L 590.0625 893.523438 L 458.695312 939.253906 L 699.050781 478.019531 " fill-opacity="1" fill-rule="nonzero"/><path fill="#2e3d63" d="M 501.917969 819.78125 C 484.648438 869.53125 469.132812 920.304688 455.640625 971.214844 C 454.074219 977.125 463.226562 979.640625 464.789062 973.730469 C 478.28125 922.828125 493.796875 872.054688 511.066406 822.304688 C 513.074219 816.523438 503.910156 814.039062 501.917969 819.78125 " fill-opacity="1" fill-rule="nonzero"/><path fill="#f7e4d7" d="M 606.617188 1122.171875 C 620.234375 1173.792969 528.773438 1244.800781 471.328125 1284.699219 C 413.925781 1324.589844 276.738281 1394.664062 138.550781 1323.648438 C 2.636719 1253.773438 94.523438 1028.535156 181.859375 852.6875 C 181.859375 852.6875 238.644531 853.078125 324.40625 879.898438 C 421.816406 910.363281 458.707031 939.253906 458.707031 939.253906 L 590.066406 893.527344 L 657.1875 1055.054688 C 656.238281 1094.945312 606.617188 1122.171875 606.617188 1122.171875 " fill-opacity="1" fill-rule="nonzero"/><path fill="#f0a48d" d="M 954.480469 893.523438 C 954.480469 893.523438 895.160156 869.605469 870.710938 837.859375 C 846.261719 806.109375 828.105469 672.511719 813.507812 655.359375 C 798.914062 638.210938 783.222656 636.75 772.273438 641.496094 C 772.273438 641.496094 772.273438 900.578125 772.273438 929.773438 C 772.273438 958.960938 800.25 1006.28125 887.339844 1055.054688 C 887.339844 1055.054688 937.941406 986.449219 954.480469 893.523438 " fill-opacity="1" fill-rule="nonzero"/><g clip-path="url(#546d9f04db)"><path fill="#6472a9" d="M 883.46875 478.019531 C 883.46875 478.019531 1010.945312 443.960938 1126.738281 472.179688 C 1242.539062 500.398438 1307.734375 666.796875 1396.28125 843.898438 C 1484.835938 1020.992188 1582.140625 1252.585938 1443.96875 1323.628906 C 1305.789062 1394.664062 1171.238281 1320.46875 1111.171875 1284.699219 C 1047.417969 1246.75 927.238281 1167.449219 937.890625 1122.164062 C 937.890625 1122.164062 888.261719 1094.921875 887.292969 1055.015625 L 954.433594 893.488281 L 1138.203125 966.863281 L 883.46875 478.019531 " fill-opacity="1" fill-rule="nonzero"/></g><path fill="#2e3d63" d="M 1083.292969 839 C 1094.097656 881.933594 1104.902344 924.867188 1115.714844 967.796875 C 1117.203125 973.714844 1126.355469 971.214844 1124.859375 965.277344 C 1114.054688 922.351562 1103.242188 879.414062 1092.441406 836.480469 C 1090.953125 830.5625 1081.796875 833.070312 1083.292969 839 " fill-opacity="1" fill-rule="nonzero"/><path fill="#2e3d63" d="M 996.703125 461.703125 C 957.046875 519.765625 890.628906 559.707031 819.996094 565.210938 C 743.855469 571.140625 678.773438 528.636719 640.347656 466.96875 C 644.617188 467.488281 648.695312 468.109375 652.585938 468.769531 C 689.78125 524.085938 750.121094 561.277344 819.996094 555.722656 C 884.890625 550.554688 946.273438 514.738281 984.554688 462.460938 C 988.546875 462.175781 992.578125 461.941406 996.703125 461.703125 " fill-opacity="1" fill-rule="nonzero"/><g clip-path="url(#cdabfbe5e2)"><path fill="#f7e4d7" d="M 1443.949219 1323.648438 C 1305.804688 1394.664062 1171.234375 1320.46875 1111.171875 1284.699219 C 1047.417969 1246.75 927.253906 1167.433594 937.878906 1122.171875 C 937.878906 1122.171875 888.257812 1094.898438 887.308594 1055.011719 L 954.4375 893.480469 L 1138.210938 966.863281 C 1138.210938 966.863281 1261.835938 888.59375 1409.226562 870.1875 C 1493.757812 1043.191406 1575.398438 1256.050781 1443.949219 1323.648438 " fill-opacity="1" fill-rule="nonzero"/></g><path fill="#f0a48d" d="M 699.050781 478.019531 C 699.050781 478.019531 731.402344 525.457031 807.304688 525.457031 C 911.183594 525.457031 936.578125 467.714844 936.578125 467.714844 L 917.992188 390.929688 L 707.328125 395.714844 L 699.050781 478.019531 " fill-opacity="1" fill-rule="nonzero"/><path fill="#f0a48d" d="M 802.761719 104.574219 C 874.367188 102.886719 933.835938 158.746094 935.585938 229.328125 L 937.996094 326.558594 C 939.746094 397.140625 898.007812 459.136719 786.859375 456.921875 C 715.238281 455.496094 680.433594 403.238281 678.679688 332.660156 L 676.273438 235.429688 C 674.523438 164.847656 731.152344 106.257812 802.761719 104.574219 " fill-opacity="1" fill-rule="nonzero"/><path fill="#ba5e4c" d="M 906.925781 164.195312 C 906.925781 164.195312 853.285156 167.847656 829.199219 129.894531 C 829.199219 129.894531 792.34375 174.417969 729.210938 161.648438 C 666.085938 148.875 659.515625 41.222656 725.929688 20.792969 C 792.34375 0.355469 839.054688 44.507812 839.054688 44.507812 C 839.054688 44.507812 858.292969 41.277344 870.800781 49.433594 C 888.128906 60.746094 884.847656 77.714844 884.847656 77.714844 C 884.847656 77.714844 933.195312 71.878906 954.363281 101.980469 C 975.527344 132.089844 965.308594 195.363281 940.132812 257.980469 C 940.132812 257.980469 904.007812 232.800781 906.925781 164.195312 " fill-opacity="1" fill-rule="nonzero"/><path fill="#f0a48d" d="M 634.042969 299.511719 C 634.042969 325.535156 655.140625 346.632812 681.167969 346.632812 C 707.195312 346.632812 728.292969 325.535156 728.292969 299.511719 C 728.292969 273.476562 707.195312 252.386719 681.167969 252.386719 C 655.140625 252.386719 634.042969 273.476562 634.042969 299.511719 " fill-opacity="1" fill-rule="nonzero"/><path fill="#f0a48d" d="M 890.925781 299.511719 C 890.925781 325.535156 912.023438 346.632812 938.050781 346.632812 C 964.074219 346.632812 985.175781 325.535156 985.175781 299.511719 C 985.175781 273.476562 964.074219 252.386719 938.050781 252.386719 C 912.023438 252.386719 890.925781 273.476562 890.925781 299.511719 " fill-opacity="1" fill-rule="nonzero"/><path fill="#ba5e4c" d="M 740.207031 213.457031 C 748.898438 210.945312 755.140625 211.429688 761.515625 211.011719 C 767.367188 210.636719 768.234375 196.925781 759.570312 193 C 750.902344 189.074219 737.378906 190.046875 727.703125 193.5 C 719.730469 196.34375 708.921875 206.605469 709.96875 214.726562 C 711.019531 222.855469 718.5 223.128906 724.359375 220.429688 C 730.90625 217.417969 734.386719 215.140625 740.207031 213.457031 " fill-opacity="1" fill-rule="nonzero"/><path fill="#ba5e4c" d="M 837.710938 213.277344 C 829.242188 210.105469 822.980469 210.105469 816.652344 209.203125 C 810.847656 208.382812 811.03125 194.648438 819.972656 191.394531 C 828.914062 188.140625 842.316406 190.144531 851.707031 194.324219 C 859.441406 197.769531 869.433594 208.835938 867.765625 216.855469 C 866.097656 224.867188 858.617188 224.570312 852.984375 221.441406 C 846.683594 217.9375 843.386719 215.398438 837.710938 213.277344 " fill-opacity="1" fill-rule="nonzero"/><path fill="#ba5e4c" d="M 744.648438 213.457031 C 753.339844 210.945312 759.582031 211.429688 765.960938 211.011719 C 771.804688 210.636719 772.675781 196.925781 764.011719 193 C 755.347656 189.074219 741.824219 190.046875 732.144531 193.5 C 724.171875 196.34375 713.359375 206.605469 714.414062 214.726562 C 715.460938 222.855469 722.941406 223.128906 728.796875 220.429688 C 735.347656 217.417969 738.828125 215.140625 744.648438 213.457031 " fill-opacity="1" fill-rule="nonzero"/><path fill="#bd6146" d="M 777.4375 279.851562 C 786.1875 259.984375 791.832031 239.488281 794.511719 217.953125 C 795.261719 211.90625 785.769531 211.960938 785.023438 217.953125 C 782.566406 237.71875 777.273438 256.828125 769.242188 275.0625 C 766.804688 280.59375 774.976562 285.433594 777.4375 279.851562 " fill-opacity="1" fill-rule="nonzero"/><path fill="#bd6146" d="M 770.929688 281.859375 C 778.722656 285.589844 787.5 285.417969 794.917969 280.820312 C 800.101562 277.613281 795.339844 269.410156 790.128906 272.628906 C 785.726562 275.355469 780.464844 275.945312 775.71875 273.667969 C 770.238281 271.042969 765.417969 279.222656 770.929688 281.859375 " fill-opacity="1" fill-rule="nonzero"/><path fill="#2f2e45" d="M 823.429688 254.632812 C 835.136719 269.699219 856.128906 267.1875 868.472656 254.441406 C 872.722656 250.054688 866.019531 243.339844 861.761719 247.738281 C 852.65625 257.136719 838.71875 258.96875 830.136719 247.929688 C 826.394531 243.105469 819.726562 249.867188 823.429688 254.632812 " fill-opacity="1" fill-rule="nonzero"/><path fill="#2f2e45" d="M 715.425781 254.632812 C 727.128906 269.699219 748.125 267.1875 760.464844 254.441406 C 764.714844 250.054688 758.015625 243.339844 753.757812 247.738281 C 744.652344 257.136719 730.714844 258.96875 722.136719 247.929688 C 718.390625 243.105469 711.722656 249.867188 715.425781 254.632812 " fill-opacity="1" fill-rule="nonzero"/><path fill="#bd6146" d="M 766.019531 313.171875 C 788.636719 320.601562 812.378906 315.542969 830.378906 300.117188 C 835.019531 296.136719 828.28125 289.460938 823.667969 293.410156 C 808.148438 306.707031 787.859375 310.371094 768.542969 304.027344 C 762.726562 302.109375 760.234375 311.265625 766.019531 313.171875 " fill-opacity="1" fill-rule="nonzero"/><path fill="#bd6146" d="M 857.375 452.59375 C 809.84375 478.023438 743.953125 466.113281 703.820312 430.777344 L 705.003906 418.773438 C 741.535156 454.730469 806.378906 469.101562 852.585938 444.390625 C 857.992188 441.542969 862.785156 449.699219 857.375 452.59375 " fill-opacity="1" fill-rule="nonzero"/><path fill="#2e3d63" d="M 458.660156 939.207031 C 394.429688 965.113281 330.195312 991.0625 265.964844 1016.960938 C 260.277344 1019.289062 257.855469 1010.078125 263.40625 1007.804688 C 325.359375 982.804688 387.3125 957.851562 449.21875 932.902344 C 455.386719 936.695312 458.375 938.972656 458.660156 939.207031 " fill-opacity="1" fill-rule="nonzero"/><path fill="#2e3d63" d="M 1208.800781 1001.113281 C 1185.410156 989.449219 1161.929688 978.011719 1138.300781 966.816406 C 1138.871094 966.4375 1142.246094 964.351562 1148.027344 961.035156 C 1170 971.421875 1191.859375 982.046875 1213.589844 992.910156 C 1219.046875 995.660156 1214.257812 1003.816406 1208.800781 1001.113281 " fill-opacity="1" fill-rule="nonzero"/><path fill="#2e3d63" d="M 1030.097656 923.699219 C 995.183594 987.882812 964.398438 1054.105469 937.878906 1122.171875 C 937.878906 1122.171875 934.605469 1120.378906 929.71875 1117.007812 C 956.097656 1049.554688 986.640625 983.847656 1021.230469 920.140625 L 1030.097656 923.699219 " fill-opacity="1" fill-rule="nonzero"/><path fill="#2e3d63" d="M 614.921875 1116.90625 C 610.464844 1120 607.285156 1121.804688 606.714844 1122.128906 C 598.414062 1092.769531 586.789062 1064.207031 575.878906 1035.75 C 560.367188 995.332031 544.191406 955.242188 527.394531 915.347656 L 536.316406 912.21875 C 553.15625 952.308594 569.382812 992.621094 584.988281 1033.226562 C 595.613281 1060.839844 606.714844 1088.5 614.921875 1116.90625 " fill-opacity="1" fill-rule="nonzero"/><path fill="#bd6146" d="M 772.222656 641.492188 L 772.222656 931.195312 C 771.988281 940.207031 769.09375 950.828125 762.738281 962.644531 L 762.738281 639.261719 C 766.152344 639.453125 769.382812 640.210938 772.222656 641.492188 " fill-opacity="1" fill-rule="nonzero"/><path fill="#bd6146" d="M 950.160156 324.378906 C 961.9375 319.578125 969.039062 308.222656 966.882812 295.449219 C 964.914062 283.785156 956.113281 275.183594 944.285156 274.25 C 938.203125 273.765625 938.160156 283.265625 944.226562 283.738281 C 951.820312 284.335938 956.863281 290.71875 957.683594 298.011719 C 958.675781 306.816406 953.300781 312.933594 945.519531 316.105469 C 939.875 318.40625 944.566406 326.667969 950.160156 324.378906 " fill-opacity="1" fill-rule="nonzero"/><path fill="#bd6146" d="M 673.171875 324.378906 C 661.390625 319.578125 654.292969 308.222656 656.449219 295.449219 C 658.417969 283.785156 667.210938 275.183594 679.046875 274.25 C 685.125 273.765625 685.171875 283.265625 679.097656 283.738281 C 671.511719 284.335938 666.46875 290.71875 665.648438 298.011719 C 664.652344 306.816406 670.03125 312.933594 677.808594 316.105469 C 683.457031 318.40625 678.761719 326.667969 673.171875 324.378906 " fill-opacity="1" fill-rule="nonzero"/></svg>